<svg width="174" height="36" xmlns="http://www.w3.org/2000/svg" xmlns:xlink="http://www.w3.org/1999/xlink" viewBox="0 0 174 36">
    <defs>
        <path id="a" d="M0 0h12.244v17.357H0z"/>
        <path id="c" d="M0 0h12.889v24.429H0z"/>
        <path id="e" d="M0 0h12.889v24.429H0z"/>
    </defs>
    <g fill="none" fill-rule="evenodd">
        <path d="M93.444 15.027c0-1.662-.89-2.357-2.884-2.357-1.995 0-2.885.695-2.885 2.357 0 1.601.828 2.387 2.885 2.387 2.056 0 2.884-.786 2.884-2.387zm-5.984 11.09c-.368.604-.552 1.208-.552 1.782 0 1.48 1.197 2.266 3.375 2.266 2.732 0 3.96-.725 3.96-2.326 0-1.088-.983-1.723-2.456-1.723H87.46zm.4-5.863c-.308.423-.46.846-.46 1.27 0 .997.582 1.3 2.208 1.3h2.854c3.652 0 5.923 1.842 5.923 4.652 0 3.778-3.069 5.953-8.44 5.953-4.203 0-6.812-1.783-6.812-4.593 0-1.239.583-2.448 1.719-3.566-.737-.543-1.105-1.299-1.105-2.296 0-1.36.645-2.6 1.933-3.717-1.412-.997-2.117-2.357-2.117-4.14 0-3.414 2.762-5.62 6.997-5.62 1.534 0 2.884.302 4.02.876l2.7-2.659 1.964 3.415-3.068.786c.767.936 1.258 1.903 1.258 3.202 0 3.324-2.7 5.44-6.874 5.44-.982 0-1.872-.091-2.7-.303zM109.95 22.337V19.33h-2.029c-2.27 0-3.421.812-3.421 2.437 0 1.233.635 1.835 1.938 1.835 1.21 0 2.755-.602 3.511-1.264m-2.513-5.805h2.513v-.542c0-1.804-1.029-2.647-2.815-2.647-1.363 0-3.12.391-4.542 1.083l-1.21-2.948c1.573-1.083 3.996-1.835 6.145-1.835 4.238 0 6.54 2.226 6.54 6.467V26.55h-3.118l-.455-1.384c-1.786 1.293-3.42 1.835-4.904 1.835-3.24 0-5.057-1.925-5.057-5.174 0-3.46 2.422-5.294 6.903-5.294M117.933 10.12h3.096l.63 1.605c1.353-1.309 3.217-2.082 5.02-2.082 2.013 0 3.425.684 4.267 2.082 1.352-1.338 3.305-2.082 5.079-2.082 3.396 0 5.108 2.052 5.108 6.126v10.588h-4.447V15.948c0-1.814-.51-2.587-2.464-2.587-.812 0-1.774.208-2.465.446v12.55h-4.447V15.948c0-1.814-.512-2.587-2.465-2.587-.811 0-1.743.208-2.434.446v12.55h-4.478V10.12zM149.33 16.803h5.665c0-2.798-.77-3.882-2.787-3.882-1.869 0-2.818 1.294-2.877 3.882m9.847 1.022c0 .722-.09 1.595-.178 1.956h-9.64c.208 2.647 1.572 3.73 4.33 3.73 1.098 0 3.085-.451 4.123-.933l.95 3.008c-1.335.752-3.827 1.414-5.577 1.414-5.427 0-8.186-2.979-8.186-8.664 0-5.504 2.73-8.693 7.385-8.693 4.39 0 6.793 2.888 6.793 8.182" fill="#FFF"/>
        <g transform="translate(161.756 9.643)">
            <mask id="b" fill="#fff">
                <use xlink:href="#a"/>
            </mask>
            <path d="M7.69 7.16c3.342 1.173 4.555 2.586 4.555 4.963 0 3.339-2.13 5.234-6.3 5.234-1.864 0-4.082-.451-5.945-1.173l.828-3.34c1.538.482 3.933 1.084 5.087 1.084 1.449 0 2.189-.482 2.189-1.444 0-.842-.503-1.324-3.076-2.287C1.596 8.964.473 7.851.473 4.994.473 2.075 2.928 0 6.477 0c1.893 0 3.786.45 5.56 1.293l-1.183 3.159c-1.064-.571-2.84-1.023-4.022-1.023-1.42 0-2.248.542-2.248 1.535 0 .932.77 1.383 3.105 2.196" fill="#FFF" mask="url(#b)"/>
        </g>
        <g transform="translate(0 2.571)">
            <mask id="d" fill="#fff">
                <use xlink:href="#c"/>
            </mask>
            <path d="m9.946 7.023 2.119 1.574-5.209 6.72 6.033 7.446-2.09 1.666-7.121-8.961 6.268-8.445zm-7.24 16.98H0V.607L2.706 0v24.004z" fill="#FFF" mask="url(#d)"/>
        </g>
        <path d="M20.61 24.731c.377 0 .767-.05 1.173-.154.404-.101.81-.234 1.216-.398a6.485 6.485 0 0 0 1.141-.598c.358-.235.674-.486.95-.752v-3.924h-2.848c-1.443 0-2.496.255-3.16.766-.66.512-.993 1.319-.993 2.423 0 1.758.84 2.637 2.522 2.637m-5.144-2.514c0-1.697.551-2.991 1.654-3.88 1.102-.889 2.706-1.334 4.81-1.334h3.16v-1.074c0-2.595-1.114-3.893-3.338-3.893-.714 0-1.464.102-2.248.307-.785.204-1.505.46-2.16.766l-.806-1.993c.815-.47 1.693-.833 2.638-1.089a10.535 10.535 0 0 1 2.754-.384c3.855 0 5.78 2.117 5.78 6.348v10.733h-2.025l-.327-1.84a9.728 9.728 0 0 1-2.607 1.565c-.923.368-1.802.551-2.638.551-1.449 0-2.585-.424-3.41-1.273-.824-.848-1.237-2.018-1.237-3.51" fill="#FFF"/>
        <g transform="translate(32.867 2.571)">
            <mask id="f" fill="#fff">
                <use xlink:href="#e"/>
            </mask>
            <path d="m9.946 7.023 2.12 1.574-5.208 6.72 6.03 7.446-2.087 1.666-7.122-8.961 6.267-8.445zm-7.24 16.98H0V.607L2.707 0v24.004z" fill="#FFF" mask="url(#f)"/>
        </g>
        <path d="M53.477 24.731c.375 0 .767-.05 1.172-.154.405-.101.81-.234 1.216-.398a6.722 6.722 0 0 0 2.09-1.35v-3.924H55.11c-1.445 0-2.498.255-3.16.766-.663.512-.993 1.319-.993 2.423 0 1.758.84 2.637 2.521 2.637m-5.144-2.514c0-1.697.552-2.991 1.653-3.88 1.104-.889 2.706-1.334 4.812-1.334h3.157v-1.074c0-2.595-1.111-3.893-3.335-3.893-.716 0-1.464.102-2.25.307-.785.204-1.505.46-2.16.766l-.804-1.993c.815-.47 1.693-.833 2.636-1.089a10.538 10.538 0 0 1 2.756-.384c3.852 0 5.78 2.117 5.78 6.348v10.733H58.55l-.327-1.84a9.703 9.703 0 0 1-2.607 1.565c-.924.368-1.802.551-2.636.551-1.451 0-2.588-.424-3.412-1.273-.825-.848-1.236-2.018-1.236-3.51M71.855 11.904c-1.457 0-2.576.55-3.355 1.65-.781 1.1-1.17 2.71-1.17 4.829 0 2.099.389 3.682 1.17 4.751.78 1.07 1.898 1.605 3.355 1.605 1.478 0 2.607-.535 3.387-1.605.78-1.07 1.17-2.652 1.17-4.751 0-2.12-.39-3.73-1.17-4.83-.78-1.1-1.91-1.65-3.387-1.65m0-2.26c2.308 0 4.121.753 5.436 2.26 1.317 1.509 1.976 3.668 1.976 6.48 0 2.77-.653 4.9-1.96 6.387-1.305 1.486-3.124 2.23-5.452 2.23-2.307 0-4.12-.744-5.435-2.23-1.317-1.487-1.976-3.617-1.976-6.387 0-2.812.663-4.971 1.99-6.48 1.326-1.507 3.133-2.26 5.421-2.26" fill="#FFF"/>
    </g>
</svg>
