<svg width="142" height="44" xmlns="http://www.w3.org/2000/svg" xmlns:xlink="http://www.w3.org/1999/xlink" viewBox="0 0 142 44">
    <defs>
        <path id="a" d="M0 0h43.612v44H0z"/>
        <path id="c" d="M0 0h4v4H0z"/>
    </defs>
    <g fill="none" fill-rule="evenodd">
        <g>
            <mask id="b" fill="#fff">
                <use xlink:href="#a"/>
            </mask>
            <path d="M21.768 0C10.294 0 .894 8.911 0 20.236l11.708 4.874a6.119 6.119 0 0 1 3.824-1.073l5.207-7.6-.001-.108c0-4.574 3.696-8.296 8.239-8.296 4.542 0 8.237 3.722 8.237 8.296 0 4.576-3.695 8.298-8.237 8.298-.063 0-.125-.002-.188-.003l-7.425 5.336c.004.098.007.196.007.295 0 3.434-2.774 6.228-6.183 6.228-2.993 0-5.496-2.152-6.062-5.001L.752 27.996C3.345 37.23 11.768 44 21.768 44c12.064 0 21.844-9.85 21.844-22S33.832 0 21.768 0" fill="#FEFEFE" mask="url(#b)"/>
        </g>
        <path d="m13.689 33.382-2.684-1.117a4.637 4.637 0 0 0 2.392 2.29c2.36.992 5.083-.137 6.067-2.517a4.673 4.673 0 0 0 .007-3.575 4.63 4.63 0 0 0-2.506-2.535 4.592 4.592 0 0 0-3.42-.052l2.772 1.154a3.45 3.45 0 0 1 1.84 4.499 3.408 3.408 0 0 1-4.468 1.853M34.465 16.33c0-3.048-2.462-5.529-5.489-5.529-3.026 0-5.49 2.48-5.49 5.529 0 3.048 2.463 5.527 5.49 5.527s5.49-2.48 5.49-5.527m-9.604-.01c0-2.294 1.847-4.152 4.123-4.152 2.278 0 4.124 1.858 4.124 4.152s-1.846 4.153-4.124 4.153c-2.276 0-4.123-1.86-4.123-4.153M66.553 15.256l-1.42 2.514c-1.093-.77-2.575-1.233-3.869-1.233-1.479 0-2.393.616-2.393 1.72 0 1.342 1.625 1.654 4.04 2.528C65.508 21.709 67 22.797 67 25.19c0 3.277-2.559 5.118-6.236 5.118-1.793 0-3.954-.466-5.617-1.484l1.036-2.787c1.35.718 2.966 1.144 4.405 1.144 1.941 0 2.864-.721 2.864-1.787 0-1.22-1.407-1.587-3.678-2.344-2.588-.87-4.381-2.012-4.381-4.664 0-2.988 2.377-4.706 5.797-4.706 2.384 0 4.3.762 5.363 1.575M78.174 16.874V30H74.84V16.874H70V14h13v2.874zM89.415 16.865v3.605h6.538v2.874h-6.538V27.1H97V30H86V14h11v2.865zM104.413 26.894 103.39 30H100l5.79-16h3.256L115 30h-3.506l-1.044-3.106h-6.037zm2.987-9.077-2.109 6.406h4.262l-2.153-6.406zM132.79 20.184l-4.38 9.35h-1.891l-4.309-9.266V30H119V14h3.202l5.38 11.55L132.77 14H136v16h-3.21z" fill="#FEFEFE"/>
        <g transform="translate(138 14)">
            <mask id="d" fill="#fff">
                <use xlink:href="#c"/>
            </mask>
            <path d="M4 1.997C4 3.231 3.07 4 2.003 4 .933 4 0 3.231 0 1.997 0 .764.933 0 2.003 0 3.07 0 4 .764 4 1.997zm-3.664 0c0 1.033.747 1.68 1.667 1.68.916 0 1.66-.647 1.66-1.68C3.664.962 2.92.324 2.004.324 1.086.324.336.97.336 1.997zM2.031.977c.518 0 .692.272.692.566 0 .27-.161.451-.357.543l.464.865h-.38l-.391-.767h-.404v.767H1.34V.977h.692zm-.373.918h.354c.228 0 .363-.142.363-.322 0-.18-.097-.297-.364-.297h-.353v.619z" fill="#FEFEFE" mask="url(#d)"/>
        </g>
    </g>
</svg>
