<svg xmlns="http://www.w3.org/2000/svg" version="1.1" xmlns:xlink="http://www.w3.org/1999/xlink" xmlns:svgjs="http://svgjs.dev/svgjs" width="2000" height="500" preserveAspectRatio="none" viewBox="0 0 2000 500"><g mask="url(&quot;#SvgjsMask1090&quot;)" fill="none"><rect width="2000" height="500" x="0" y="0" fill="rgba(255, 255, 255, 1)"></rect><path d="M684 224L336 572" stroke-width="8" stroke="url(&quot;#SvgjsLinearGradient1091&quot;)" stroke-linecap="round" class="BottomLeft"></path><path d="M245 84L-49 378" stroke-width="6" stroke="url(&quot;#SvgjsLinearGradient1091&quot;)" stroke-linecap="round" class="BottomLeft"></path><path d="M1767 80L1637 210" stroke-width="8" stroke="url(&quot;#SvgjsLinearGradient1092&quot;)" stroke-linecap="round" class="TopRight"></path><path d="M322 417L10 729" stroke-width="6" stroke="url(&quot;#SvgjsLinearGradient1092&quot;)" stroke-linecap="round" class="TopRight"></path><path d="M1273 231L1126 378" stroke-width="8" stroke="url(&quot;#SvgjsLinearGradient1091&quot;)" stroke-linecap="round" class="BottomLeft"></path><path d="M420 37L224 233" stroke-width="10" stroke="url(&quot;#SvgjsLinearGradient1092&quot;)" stroke-linecap="round" class="TopRight"></path><path d="M177 286L52 411" stroke-width="10" stroke="url(&quot;#SvgjsLinearGradient1091&quot;)" stroke-linecap="round" class="BottomLeft"></path><path d="M596 395L236 755" stroke-width="6" stroke="url(&quot;#SvgjsLinearGradient1091&quot;)" stroke-linecap="round" class="BottomLeft"></path><path d="M136 478L-93 707" stroke-width="10" stroke="url(&quot;#SvgjsLinearGradient1091&quot;)" stroke-linecap="round" class="BottomLeft"></path><path d="M1283 365L1039 609" stroke-width="6" stroke="url(&quot;#SvgjsLinearGradient1091&quot;)" stroke-linecap="round" class="BottomLeft"></path><path d="M1662 487L2008 141" stroke-width="6" stroke="url(&quot;#SvgjsLinearGradient1092&quot;)" stroke-linecap="round" class="TopRight"></path><path d="M676 297L445 528" stroke-width="10" stroke="url(&quot;#SvgjsLinearGradient1091&quot;)" stroke-linecap="round" class="BottomLeft"></path><path d="M1751 67L1952 -134" stroke-width="6" stroke="url(&quot;#SvgjsLinearGradient1092&quot;)" stroke-linecap="round" class="TopRight"></path><path d="M722 308L579 451" stroke-width="10" stroke="url(&quot;#SvgjsLinearGradient1091&quot;)" stroke-linecap="round" class="BottomLeft"></path><path d="M1913 158L2201 -130" stroke-width="8" stroke="url(&quot;#SvgjsLinearGradient1091&quot;)" stroke-linecap="round" class="BottomLeft"></path><path d="M1841 479L1612 708" stroke-width="10" stroke="url(&quot;#SvgjsLinearGradient1092&quot;)" stroke-linecap="round" class="TopRight"></path><path d="M768 402L980 190" stroke-width="6" stroke="url(&quot;#SvgjsLinearGradient1091&quot;)" stroke-linecap="round" class="BottomLeft"></path><path d="M931 354L1234 51" stroke-width="10" stroke="url(&quot;#SvgjsLinearGradient1091&quot;)" stroke-linecap="round" class="BottomLeft"></path><path d="M1140 104L1313 -69" stroke-width="8" stroke="url(&quot;#SvgjsLinearGradient1092&quot;)" stroke-linecap="round" class="TopRight"></path><path d="M903 265L1170 -2" stroke-width="8" stroke="url(&quot;#SvgjsLinearGradient1092&quot;)" stroke-linecap="round" class="TopRight"></path><path d="M1348 353L1128 573" stroke-width="10" stroke="url(&quot;#SvgjsLinearGradient1092&quot;)" stroke-linecap="round" class="TopRight"></path><path d="M600 477L274 803" stroke-width="10" stroke="url(&quot;#SvgjsLinearGradient1092&quot;)" stroke-linecap="round" class="TopRight"></path><path d="M391 120L559 -48" stroke-width="10" stroke="url(&quot;#SvgjsLinearGradient1092&quot;)" stroke-linecap="round" class="TopRight"></path><path d="M1188 300L1444 44" stroke-width="8" stroke="url(&quot;#SvgjsLinearGradient1091&quot;)" stroke-linecap="round" class="BottomLeft"></path><path d="M1313 97L1146 264" stroke-width="10" stroke="url(&quot;#SvgjsLinearGradient1092&quot;)" stroke-linecap="round" class="TopRight"></path><path d="M1125 124L1283 -34" stroke-width="10" stroke="url(&quot;#SvgjsLinearGradient1092&quot;)" stroke-linecap="round" class="TopRight"></path><path d="M1588 0L1215 373" stroke-width="6" stroke="url(&quot;#SvgjsLinearGradient1092&quot;)" stroke-linecap="round" class="TopRight"></path><path d="M1888 348L2129 107" stroke-width="6" stroke="url(&quot;#SvgjsLinearGradient1091&quot;)" stroke-linecap="round" class="BottomLeft"></path><path d="M748 79L888 -61" stroke-width="8" stroke="url(&quot;#SvgjsLinearGradient1091&quot;)" stroke-linecap="round" class="BottomLeft"></path><path d="M79 86L-200 365" stroke-width="10" stroke="url(&quot;#SvgjsLinearGradient1091&quot;)" stroke-linecap="round" class="BottomLeft"></path><path d="M969 125L668 426" stroke-width="6" stroke="url(&quot;#SvgjsLinearGradient1092&quot;)" stroke-linecap="round" class="TopRight"></path><path d="M544 48L907 -315" stroke-width="10" stroke="url(&quot;#SvgjsLinearGradient1092&quot;)" stroke-linecap="round" class="TopRight"></path><path d="M1981 62L1698 345" stroke-width="6" stroke="url(&quot;#SvgjsLinearGradient1091&quot;)" stroke-linecap="round" class="BottomLeft"></path><path d="M274 42L570 -254" stroke-width="6" stroke="url(&quot;#SvgjsLinearGradient1092&quot;)" stroke-linecap="round" class="TopRight"></path><path d="M1784 402L2026 160" stroke-width="6" stroke="url(&quot;#SvgjsLinearGradient1091&quot;)" stroke-linecap="round" class="BottomLeft"></path><path d="M1897 310L2157 50" stroke-width="6" stroke="url(&quot;#SvgjsLinearGradient1092&quot;)" stroke-linecap="round" class="TopRight"></path><path d="M194 109L-103 406" stroke-width="6" stroke="url(&quot;#SvgjsLinearGradient1092&quot;)" stroke-linecap="round" class="TopRight"></path><path d="M298 328L83 543" stroke-width="8" stroke="url(&quot;#SvgjsLinearGradient1092&quot;)" stroke-linecap="round" class="TopRight"></path><path d="M733 174L1037 -130" stroke-width="6" stroke="url(&quot;#SvgjsLinearGradient1091&quot;)" stroke-linecap="round" class="BottomLeft"></path><path d="M250 461L-101 812" stroke-width="8" stroke="url(&quot;#SvgjsLinearGradient1091&quot;)" stroke-linecap="round" class="BottomLeft"></path><path d="M1483 372L1850 5" stroke-width="10" stroke="url(&quot;#SvgjsLinearGradient1091&quot;)" stroke-linecap="round" class="BottomLeft"></path><path d="M1846 392L1508 730" stroke-width="8" stroke="url(&quot;#SvgjsLinearGradient1092&quot;)" stroke-linecap="round" class="TopRight"></path><path d="M1022 23L1344 -299" stroke-width="10" stroke="url(&quot;#SvgjsLinearGradient1091&quot;)" stroke-linecap="round" class="BottomLeft"></path><path d="M1962 86L2158 -110" stroke-width="6" stroke="url(&quot;#SvgjsLinearGradient1091&quot;)" stroke-linecap="round" class="BottomLeft"></path><path d="M225 12L557 -320" stroke-width="6" stroke="url(&quot;#SvgjsLinearGradient1092&quot;)" stroke-linecap="round" class="TopRight"></path><path d="M131 33L-66 230" stroke-width="10" stroke="url(&quot;#SvgjsLinearGradient1091&quot;)" stroke-linecap="round" class="BottomLeft"></path><path d="M390 236L535 91" stroke-width="10" stroke="url(&quot;#SvgjsLinearGradient1092&quot;)" stroke-linecap="round" class="TopRight"></path><path d="M458 154L804 -192" stroke-width="8" stroke="url(&quot;#SvgjsLinearGradient1091&quot;)" stroke-linecap="round" class="BottomLeft"></path><path d="M1136 174L1493 -183" stroke-width="6" stroke="url(&quot;#SvgjsLinearGradient1092&quot;)" stroke-linecap="round" class="TopRight"></path><path d="M1192 260L1347 105" stroke-width="8" stroke="url(&quot;#SvgjsLinearGradient1092&quot;)" stroke-linecap="round" class="TopRight"></path><path d="M358 192L630 -80" stroke-width="8" stroke="url(&quot;#SvgjsLinearGradient1091&quot;)" stroke-linecap="round" class="BottomLeft"></path><path d="M657 68L316 409" stroke-width="6" stroke="url(&quot;#SvgjsLinearGradient1092&quot;)" stroke-linecap="round" class="TopRight"></path></g><defs><mask id="SvgjsMask1090"><rect width="2000" height="500" fill="#ffffff"></rect></mask><linearGradient x1="100%" y1="0%" x2="0%" y2="100%" id="SvgjsLinearGradient1091"><stop stop-color="rgba(146, 185, 41, 0)" offset="0"></stop><stop stop-color="rgba(146, 185, 41, 1)" offset="1"></stop></linearGradient><linearGradient x1="0%" y1="100%" x2="100%" y2="0%" id="SvgjsLinearGradient1092"><stop stop-color="rgba(146, 185, 41, 0)" offset="0"></stop><stop stop-color="rgba(146, 185, 41, 1)" offset="1"></stop></linearGradient></defs></svg>