<svg xmlns="http://www.w3.org/2000/svg" version="1.1" xmlns:xlink="http://www.w3.org/1999/xlink" xmlns:svgjs="http://svgjs.dev/svgjs" width="2000" height="500" preserveAspectRatio="none" viewBox="0 0 2000 500"><g mask="url(&quot;#SvgjsMask1032&quot;)" fill="none"><path d="M798.84 149.26L798.84 153.79L822.17 153.79L822.17 149.26zM814.15 151.52 a8.02 8.02 0 1 0 16.04 0 a8.02 8.02 0 1 0 -16.04 0zM793.12 182.53L791.39 186.72L809.89 194.38L811.62 190.19zM802.73 192.28 a8.02 8.02 0 1 0 16.04 0 a8.02 8.02 0 1 0 -16.04 0zM775.11 211.08L771.91 214.28L798.84 241.22L802.04 238.02zM792.42 239.62 a8.02 8.02 0 1 0 16.04 0 a8.02 8.02 0 1 0 -16.04 0zM747.54 230.56L743.36 232.3L754.65 259.55L758.83 257.82zM748.72 258.69 a8.02 8.02 0 1 0 16.04 0 a8.02 8.02 0 1 0 -16.04 0zM714.62 238.02L710.09 238.02L710.09 269.55L714.62 269.55zM704.33 269.55 a8.02 8.02 0 1 0 16.04 0 a8.02 8.02 0 1 0 -16.04 0zM681.35 232.3L677.16 230.56L667.64 253.56L671.82 255.29zM661.71 254.43 a8.02 8.02 0 1 0 16.04 0 a8.02 8.02 0 1 0 -16.04 0zM652.8 214.28L649.59 211.08L638.12 222.56L641.32 225.76zM631.7 224.16 a8.02 8.02 0 1 0 16.04 0 a8.02 8.02 0 1 0 -16.04 0zM633.31 186.72L631.58 182.53L594.99 197.69L596.73 201.87zM587.84 199.78 a8.02 8.02 0 1 0 16.04 0 a8.02 8.02 0 1 0 -16.04 0zM625.86 153.79L625.86 149.26L612.14 149.26L612.14 153.79zM604.12 151.52 a8.02 8.02 0 1 0 16.04 0 a8.02 8.02 0 1 0 -16.04 0zM631.58 120.52L633.31 116.33L623.25 112.17L621.52 116.35zM614.36 114.26 a8.02 8.02 0 1 0 16.04 0 a8.02 8.02 0 1 0 -16.04 0zM649.59 91.97L652.8 88.77L640.63 76.6L637.42 79.8zM631 78.2 a8.02 8.02 0 1 0 16.04 0 a8.02 8.02 0 1 0 -16.04 0zM677.16 72.48L681.35 70.75L669.6 42.41L665.42 44.14zM659.49 43.27 a8.02 8.02 0 1 0 16.04 0 a8.02 8.02 0 1 0 -16.04 0zM710.09 65.03L714.62 65.03L714.62 25.6L710.09 25.6zM704.33 25.6 a8.02 8.02 0 1 0 16.04 0 a8.02 8.02 0 1 0 -16.04 0zM743.36 70.75L747.54 72.48L754.47 55.76L750.28 54.03zM744.36 54.9 a8.02 8.02 0 1 0 16.04 0 a8.02 8.02 0 1 0 -16.04 0zM771.91 88.77L775.11 91.97L785.97 81.11L782.77 77.9zM776.35 79.51 a8.02 8.02 0 1 0 16.04 0 a8.02 8.02 0 1 0 -16.04 0zM791.39 116.33L793.12 120.52L827.76 106.17L826.03 101.99zM818.87 104.08 a8.02 8.02 0 1 0 16.04 0 a8.02 8.02 0 1 0 -16.04 0zM625.83 151.52 a86.52 86.52 0 1 0 173.04 0 a86.52 86.52 0 1 0 -173.04 0z" fill="rgba(146, 185, 41, 1)"></path><path d="M650.8 90.72 A85.52 85.52 0 0 1 795.74 128.45M795.74 128.45 A173.04 173.04 0 0 0 650.8 90.72" fill="#759421" fill-rule="nonzero"></path><path d="M657.07 165.51 a17.3 17.3 0 1 0 34.6 0 a17.3 17.3 0 1 0 -34.6 0zM716.78 175.75 a17.3 17.3 0 1 0 34.6 0 a17.3 17.3 0 1 0 -34.6 0zM659.87 209.88 a9.52 9.52 0 1 0 19.04 0 a9.52 9.52 0 1 0 -19.04 0zM632.67 159.87 a3.46 3.46 0 1 0 6.92 0 a3.46 3.46 0 1 0 -6.92 0zM770.7 113.43 a8.65 8.65 0 1 0 17.3 0 a8.65 8.65 0 1 0 -17.3 0zM637.07 120.06 a15.57 15.57 0 1 0 31.14 0 a15.57 15.57 0 1 0 -31.14 0zM725.74 218.29 a7.79 7.79 0 1 0 15.58 0 a7.79 7.79 0 1 0 -15.58 0zM736.13 107.51 a8.65 8.65 0 1 0 17.3 0 a8.65 8.65 0 1 0 -17.3 0zM700.78 74.82 a9.52 9.52 0 1 0 19.04 0 a9.52 9.52 0 1 0 -19.04 0zM755.86 204.56 a3.46 3.46 0 1 0 6.92 0 a3.46 3.46 0 1 0 -6.92 0z" fill="#759421" fill-rule="nonzero"></path><path d="M1206.26 353.83L1206.26 358.36L1244.02 358.36L1244.02 353.83zM1236 356.1 a8.02 8.02 0 1 0 16.04 0 a8.02 8.02 0 1 0 -16.04 0zM1200.55 387.1L1198.81 391.29L1217.88 399.18L1219.61 395zM1210.73 397.09 a8.02 8.02 0 1 0 16.04 0 a8.02 8.02 0 1 0 -16.04 0zM1182.53 415.65L1179.33 418.85L1192.7 432.23L1195.9 429.02zM1186.28 430.62 a8.02 8.02 0 1 0 16.04 0 a8.02 8.02 0 1 0 -16.04 0zM1154.96 435.13L1150.78 436.87L1163.25 466.99L1167.44 465.25zM1157.33 466.12 a8.02 8.02 0 1 0 16.04 0 a8.02 8.02 0 1 0 -16.04 0zM1122.04 442.59L1117.51 442.59L1117.51 460.85L1122.04 460.85zM1111.75 460.85 a8.02 8.02 0 1 0 16.04 0 a8.02 8.02 0 1 0 -16.04 0zM1088.77 436.87L1084.58 435.13L1073.04 463L1077.22 464.73zM1067.11 463.87 a8.02 8.02 0 1 0 16.04 0 a8.02 8.02 0 1 0 -16.04 0zM1060.22 418.85L1057.01 415.65L1041.67 431L1044.87 434.2zM1035.25 432.6 a8.02 8.02 0 1 0 16.04 0 a8.02 8.02 0 1 0 -16.04 0zM1040.73 391.29L1039 387.1L1011.21 398.61L1012.94 402.8zM1004.06 400.7 a8.02 8.02 0 1 0 16.04 0 a8.02 8.02 0 1 0 -16.04 0zM1033.28 358.36L1033.28 353.83L998.73 353.83L998.73 358.36zM990.71 356.1 a8.02 8.02 0 1 0 16.04 0 a8.02 8.02 0 1 0 -16.04 0zM1039 325.09L1040.73 320.9L1027.41 315.39L1025.68 319.57zM1018.52 317.48 a8.02 8.02 0 1 0 16.04 0 a8.02 8.02 0 1 0 -16.04 0zM1057.01 296.54L1060.22 293.34L1031.93 265.05L1028.73 268.25zM1022.31 266.65 a8.02 8.02 0 1 0 16.04 0 a8.02 8.02 0 1 0 -16.04 0zM1084.58 277.06L1088.77 275.32L1074.78 241.55L1070.59 243.29zM1064.67 242.42 a8.02 8.02 0 1 0 16.04 0 a8.02 8.02 0 1 0 -16.04 0zM1117.51 269.6L1122.04 269.6L1122.04 234.37L1117.51 234.37zM1111.75 234.37 a8.02 8.02 0 1 0 16.04 0 a8.02 8.02 0 1 0 -16.04 0zM1150.78 275.32L1154.96 277.06L1160.04 264.8L1155.86 263.06zM1149.93 263.93 a8.02 8.02 0 1 0 16.04 0 a8.02 8.02 0 1 0 -16.04 0zM1179.33 293.34L1182.53 296.54L1192.79 286.28L1189.59 283.08zM1183.17 284.68 a8.02 8.02 0 1 0 16.04 0 a8.02 8.02 0 1 0 -16.04 0zM1198.81 320.9L1200.55 325.09L1232.35 311.92L1230.61 307.73zM1223.46 309.82 a8.02 8.02 0 1 0 16.04 0 a8.02 8.02 0 1 0 -16.04 0zM1033.25 356.1 a86.52 86.52 0 1 0 173.04 0 a86.52 86.52 0 1 0 -173.04 0z" fill="rgba(146, 185, 41, 1)"></path><path d="M1036.96 381.16 A85.52 85.52 0 0 1 1139.29 271.81M1139.29 271.81 A173.04 173.04 0 0 0 1036.96 381.16" fill="#759421" fill-rule="nonzero"></path><path d="M1065.17 294.39 a9.52 9.52 0 1 0 19.04 0 a9.52 9.52 0 1 0 -19.04 0zM1040.3 325.28 a7.79 7.79 0 1 0 15.58 0 a7.79 7.79 0 1 0 -15.58 0zM1072.99 421.89 a11.25 11.25 0 1 0 22.5 0 a11.25 11.25 0 1 0 -22.5 0zM1122.43 286.88 a14.71 14.71 0 1 0 29.42 0 a14.71 14.71 0 1 0 -29.42 0zM1111.56 330.4 a12.98 12.98 0 1 0 25.96 0 a12.98 12.98 0 1 0 -25.96 0zM1065.66 374.87 a17.3 17.3 0 1 0 34.6 0 a17.3 17.3 0 1 0 -34.6 0zM1154.54 325.92 a4.33 4.33 0 1 0 8.66 0 a4.33 4.33 0 1 0 -8.66 0zM1087.24 337.09 a3.46 3.46 0 1 0 6.92 0 a3.46 3.46 0 1 0 -6.92 0zM1152.94 381.88 a17.3 17.3 0 1 0 34.6 0 a17.3 17.3 0 1 0 -34.6 0zM1135.34 412.79 a6.92 6.92 0 1 0 13.84 0 a6.92 6.92 0 1 0 -13.84 0z" fill="#759421" fill-rule="nonzero"></path><path d="M1900.18 252.23L1900.18 257.41L1917.28 257.41L1917.28 252.23zM1908.11 254.82 a9.17 9.17 0 1 0 18.34 0 a9.17 9.17 0 1 0 -18.34 0zM1893.65 290.26L1891.66 295.04L1917.29 305.66L1919.27 300.87zM1909.11 303.26 a9.17 9.17 0 1 0 18.34 0 a9.17 9.17 0 1 0 -18.34 0zM1873.06 322.89L1869.4 326.55L1879.21 336.36L1882.87 332.7zM1871.87 334.53 a9.17 9.17 0 1 0 18.34 0 a9.17 9.17 0 1 0 -18.34 0zM1841.55 345.15L1836.77 347.13L1843.27 362.82L1848.05 360.84zM1836.49 361.83 a9.17 9.17 0 1 0 18.34 0 a9.17 9.17 0 1 0 -18.34 0zM1803.92 353.67L1798.74 353.67L1798.74 385.91L1803.92 385.91zM1792.16 385.91 a9.17 9.17 0 1 0 18.34 0 a9.17 9.17 0 1 0 -18.34 0zM1765.9 347.13L1761.11 345.15L1753.66 363.15L1758.44 365.13zM1746.88 364.14 a9.17 9.17 0 1 0 18.34 0 a9.17 9.17 0 1 0 -18.34 0zM1733.27 326.55L1729.61 322.89L1719.33 333.16L1722.99 336.82zM1711.99 334.99 a9.17 9.17 0 1 0 18.34 0 a9.17 9.17 0 1 0 -18.34 0zM1711 295.04L1709.02 290.26L1672.78 305.27L1674.76 310.05zM1664.6 307.66 a9.17 9.17 0 1 0 18.34 0 a9.17 9.17 0 1 0 -18.34 0zM1702.49 257.41L1702.49 252.23L1677.17 252.23L1677.17 257.41zM1668 254.82 a9.17 9.17 0 1 0 18.34 0 a9.17 9.17 0 1 0 -18.34 0zM1709.02 219.39L1711 214.6L1684.7 203.71L1682.72 208.49zM1674.54 206.1 a9.17 9.17 0 1 0 18.34 0 a9.17 9.17 0 1 0 -18.34 0zM1729.61 186.76L1733.27 183.1L1703.75 153.57L1700.09 157.24zM1692.75 155.4 a9.17 9.17 0 1 0 18.34 0 a9.17 9.17 0 1 0 -18.34 0zM1761.11 164.49L1765.9 162.51L1758.37 144.35L1753.59 146.33zM1746.81 145.34 a9.17 9.17 0 1 0 18.34 0 a9.17 9.17 0 1 0 -18.34 0zM1798.74 155.98L1803.92 155.98L1803.92 128.72L1798.74 128.72zM1792.16 128.72 a9.17 9.17 0 1 0 18.34 0 a9.17 9.17 0 1 0 -18.34 0zM1836.77 162.51L1841.55 164.49L1857.59 125.77L1852.81 123.79zM1846.03 124.78 a9.17 9.17 0 1 0 18.34 0 a9.17 9.17 0 1 0 -18.34 0zM1869.4 183.1L1873.06 186.76L1903.56 156.25L1899.9 152.59zM1892.56 154.42 a9.17 9.17 0 1 0 18.34 0 a9.17 9.17 0 1 0 -18.34 0zM1891.66 214.6L1893.65 219.39L1927.97 205.17L1925.99 200.39zM1917.81 202.78 a9.17 9.17 0 1 0 18.34 0 a9.17 9.17 0 1 0 -18.34 0zM1702.45 254.82 a98.88 98.88 0 1 0 197.76 0 a98.88 98.88 0 1 0 -197.76 0z" fill="rgba(146, 185, 41, 1)"></path><path d="M1772.32 160.29 A97.88 97.88 0 0 1 1897.75 276.76M1897.75 276.76 A197.76 197.76 0 0 0 1772.32 160.29" fill="#759421" fill-rule="nonzero"></path><path d="M1771.77 253.84 a19.78 19.78 0 1 0 39.56 0 a19.78 19.78 0 1 0 -39.56 0zM1766.82 325.02 a19.78 19.78 0 1 0 39.56 0 a19.78 19.78 0 1 0 -39.56 0zM1723.78 298.63 a14.83 14.83 0 1 0 29.66 0 a14.83 14.83 0 1 0 -29.66 0zM1749.7 186.31 a19.78 19.78 0 1 0 39.56 0 a19.78 19.78 0 1 0 -39.56 0zM1821.42 285.89 a17.8 17.8 0 1 0 35.6 0 a17.8 17.8 0 1 0 -35.6 0zM1822.93 213.71 a19.78 19.78 0 1 0 39.56 0 a19.78 19.78 0 1 0 -39.56 0zM1866.65 248.78 a5.93 5.93 0 1 0 11.86 0 a5.93 5.93 0 1 0 -11.86 0zM1723.65 249.29 a13.84 13.84 0 1 0 27.68 0 a13.84 13.84 0 1 0 -27.68 0zM1827.66 168.67 a5.93 5.93 0 1 0 11.86 0 a5.93 5.93 0 1 0 -11.86 0zM1881.49 277.72 a5.93 5.93 0 1 0 11.86 0 a5.93 5.93 0 1 0 -11.86 0z" fill="#759421" fill-rule="nonzero"></path><path d="M198.22 297.45L198.22 301.33L219.3 301.33L219.3 297.45zM212.42 299.39 a6.88 6.88 0 1 0 13.76 0 a6.88 6.88 0 1 0 -13.76 0zM193.32 325.97L191.84 329.55L223.03 342.48L224.52 338.89zM216.9 340.68 a6.88 6.88 0 1 0 13.76 0 a6.88 6.88 0 1 0 -13.76 0zM177.88 350.44L175.14 353.18L182.74 360.78L185.48 358.04zM177.23 359.41 a6.88 6.88 0 1 0 13.76 0 a6.88 6.88 0 1 0 -13.76 0zM154.25 367.14L150.66 368.62L154.92 378.89L158.5 377.4zM149.83 378.14 a6.88 6.88 0 1 0 13.76 0 a6.88 6.88 0 1 0 -13.76 0zM126.03 373.52L122.15 373.52L122.15 384.26L126.03 384.26zM117.21 384.26 a6.88 6.88 0 1 0 13.76 0 a6.88 6.88 0 1 0 -13.76 0zM97.51 368.62L93.92 367.14L87.39 382.92L90.97 384.4zM82.3 383.66 a6.88 6.88 0 1 0 13.76 0 a6.88 6.88 0 1 0 -13.76 0zM73.04 353.18L70.29 350.44L60.54 360.19L63.29 362.93zM55.03 361.56 a6.88 6.88 0 1 0 13.76 0 a6.88 6.88 0 1 0 -13.76 0zM56.34 329.55L54.85 325.97L42.44 331.11L43.92 334.7zM36.3 332.9 a6.88 6.88 0 1 0 13.76 0 a6.88 6.88 0 1 0 -13.76 0zM49.95 301.33L49.95 297.45L18.68 297.45L18.68 301.33zM11.8 299.39 a6.88 6.88 0 1 0 13.76 0 a6.88 6.88 0 1 0 -13.76 0zM54.85 272.81L56.34 269.23L34.82 260.31L33.34 263.9zM27.2 262.11 a6.88 6.88 0 1 0 13.76 0 a6.88 6.88 0 1 0 -13.76 0zM70.29 248.34L73.04 245.6L54.28 226.84L51.53 229.58zM46.03 228.21 a6.88 6.88 0 1 0 13.76 0 a6.88 6.88 0 1 0 -13.76 0zM93.92 231.64L97.51 230.15L90.7 213.71L87.11 215.2zM82.03 214.45 a6.88 6.88 0 1 0 13.76 0 a6.88 6.88 0 1 0 -13.76 0zM122.15 225.25L126.03 225.25L126.03 209.87L122.15 209.87zM117.21 209.87 a6.88 6.88 0 1 0 13.76 0 a6.88 6.88 0 1 0 -13.76 0zM150.66 230.15L154.25 231.64L158.82 220.6L155.24 219.11zM150.15 219.86 a6.88 6.88 0 1 0 13.76 0 a6.88 6.88 0 1 0 -13.76 0zM175.14 245.6L177.88 248.34L195.84 230.38L193.1 227.63zM187.59 229.01 a6.88 6.88 0 1 0 13.76 0 a6.88 6.88 0 1 0 -13.76 0zM191.84 269.23L193.32 272.81L215.85 263.48L214.36 259.9zM208.22 261.69 a6.88 6.88 0 1 0 13.76 0 a6.88 6.88 0 1 0 -13.76 0zM49.93 299.39 a74.16 74.16 0 1 0 148.32 0 a74.16 74.16 0 1 0 -148.32 0z" fill="rgba(146, 185, 41, 1)"></path><path d="M56.33 329.53 A73.16 73.16 0 0 1 131.71 225.62M131.71 225.62 A148.32 148.32 0 0 0 56.33 329.53" fill="#759421" fill-rule="nonzero"></path><path d="M92.67 245.04 a14.83 14.83 0 1 0 29.66 0 a14.83 14.83 0 1 0 -29.66 0zM65.5 276.26 a12.61 12.61 0 1 0 25.22 0 a12.61 12.61 0 1 0 -25.22 0zM105.45 339.29 a14.83 14.83 0 1 0 29.66 0 a14.83 14.83 0 1 0 -29.66 0zM152.43 272.55 a14.83 14.83 0 1 0 29.66 0 a14.83 14.83 0 1 0 -29.66 0zM127.53 279.74 a5.19 5.19 0 1 0 10.38 0 a5.19 5.19 0 1 0 -10.38 0zM83.6 308.64 a7.42 7.42 0 1 0 14.84 0 a7.42 7.42 0 1 0 -14.84 0zM158.34 240.44 a2.97 2.97 0 1 0 5.94 0 a2.97 2.97 0 1 0 -5.94 0zM188.31 295.55 a2.97 2.97 0 1 0 5.94 0 a2.97 2.97 0 1 0 -5.94 0zM56.15 321.22 a7.42 7.42 0 1 0 14.84 0 a7.42 7.42 0 1 0 -14.84 0zM184.6 326.98 a3.71 3.71 0 1 0 7.42 0 a3.71 3.71 0 1 0 -7.42 0z" fill="#759421" fill-rule="nonzero"></path><path d="M1427.16 148.36L1427.16 150.95L1437.33 150.95L1437.33 148.36zM1432.75 149.66 a4.58 4.58 0 1 0 9.16 0 a4.58 4.58 0 1 0 -9.16 0zM1423.89 167.38L1422.9 169.77L1444.3 178.63L1445.29 176.24zM1440.21 177.43 a4.58 4.58 0 1 0 9.16 0 a4.58 4.58 0 1 0 -9.16 0zM1413.6 183.69L1411.77 185.52L1421.09 194.85L1422.92 193.02zM1417.43 193.93 a4.58 4.58 0 1 0 9.16 0 a4.58 4.58 0 1 0 -9.16 0zM1397.84 194.82L1395.45 195.81L1397.93 201.79L1400.32 200.8zM1394.54 201.3 a4.58 4.58 0 1 0 9.16 0 a4.58 4.58 0 1 0 -9.16 0zM1379.03 199.08L1376.44 199.08L1376.44 205.84L1379.03 205.84zM1373.15 205.84 a4.58 4.58 0 1 0 9.16 0 a4.58 4.58 0 1 0 -9.16 0zM1360.02 195.81L1357.62 194.82L1352.51 207.17L1354.9 208.16zM1349.13 207.66 a4.58 4.58 0 1 0 9.16 0 a4.58 4.58 0 1 0 -9.16 0zM1343.7 185.52L1341.87 183.69L1332.69 192.88L1334.52 194.71zM1329.02 193.79 a4.58 4.58 0 1 0 9.16 0 a4.58 4.58 0 1 0 -9.16 0zM1332.57 169.77L1331.58 167.38L1315.7 173.95L1316.69 176.35zM1311.61 175.15 a4.58 4.58 0 1 0 9.16 0 a4.58 4.58 0 1 0 -9.16 0zM1328.31 150.95L1328.31 148.36L1315.57 148.36L1315.57 150.95zM1310.99 149.66 a4.58 4.58 0 1 0 9.16 0 a4.58 4.58 0 1 0 -9.16 0zM1331.58 131.94L1332.57 129.55L1314.11 121.9L1313.12 124.29zM1309.03 123.1 a4.58 4.58 0 1 0 9.16 0 a4.58 4.58 0 1 0 -9.16 0zM1341.87 115.63L1343.7 113.8L1339.13 109.23L1337.3 111.06zM1333.64 110.14 a4.58 4.58 0 1 0 9.16 0 a4.58 4.58 0 1 0 -9.16 0zM1357.62 104.49L1360.02 103.5L1351.28 82.42L1348.89 83.41zM1345.51 82.91 a4.58 4.58 0 1 0 9.16 0 a4.58 4.58 0 1 0 -9.16 0zM1376.44 100.24L1379.03 100.24L1379.03 88.25L1376.44 88.25zM1373.15 88.25 a4.58 4.58 0 1 0 9.16 0 a4.58 4.58 0 1 0 -9.16 0zM1395.45 103.5L1397.84 104.49L1403.56 90.7L1401.16 89.71zM1397.78 90.2 a4.58 4.58 0 1 0 9.16 0 a4.58 4.58 0 1 0 -9.16 0zM1411.77 113.8L1413.6 115.63L1425.68 103.54L1423.85 101.71zM1420.19 102.63 a4.58 4.58 0 1 0 9.16 0 a4.58 4.58 0 1 0 -9.16 0zM1422.9 129.55L1423.89 131.94L1433.86 127.81L1432.87 125.42zM1428.78 126.62 a4.58 4.58 0 1 0 9.16 0 a4.58 4.58 0 1 0 -9.16 0zM1328.29 149.66 a49.44 49.44 0 1 0 98.88 0 a49.44 49.44 0 1 0 -98.88 0z" fill="rgba(146, 185, 41, 1)"></path><path d="M1341.89 183.71 A48.44 48.44 0 0 1 1366.07 101.61M1366.07 101.61 A98.88 98.88 0 0 0 1341.89 183.71" fill="#759421" fill-rule="nonzero"></path><path d="M1360.55 191.85 a5.44 5.44 0 1 0 10.88 0 a5.44 5.44 0 1 0 -10.88 0zM1407.64 129.19 a6.92 6.92 0 1 0 13.84 0 a6.92 6.92 0 1 0 -13.84 0zM1367.47 142.44 a9.89 9.89 0 1 0 19.78 0 a9.89 9.89 0 1 0 -19.78 0zM1396.82 111.33 a4.45 4.45 0 1 0 8.9 0 a4.45 4.45 0 1 0 -8.9 0zM1409.54 182.75 a1.98 1.98 0 1 0 3.96 0 a1.98 1.98 0 1 0 -3.96 0zM1342.15 116.78 a2.97 2.97 0 1 0 5.94 0 a2.97 2.97 0 1 0 -5.94 0zM1361.81 122.3 a3.46 3.46 0 1 0 6.92 0 a3.46 3.46 0 1 0 -6.92 0zM1328.65 150.74 a9.39 9.39 0 1 0 18.78 0 a9.39 9.39 0 1 0 -18.78 0zM1362.28 171.55 a4.94 4.94 0 1 0 9.88 0 a4.94 4.94 0 1 0 -9.88 0zM1395.63 151.67 a4.94 4.94 0 1 0 9.88 0 a4.94 4.94 0 1 0 -9.88 0z" fill="#759421" fill-rule="nonzero"></path><path d="M519.36 416.06L519.36 418.65L530.23 418.65L530.23 416.06zM525.65 417.36 a4.58 4.58 0 1 0 9.16 0 a4.58 4.58 0 1 0 -9.16 0zM516.1 435.07L515.11 437.47L529.48 443.42L530.47 441.03zM525.4 442.22 a4.58 4.58 0 1 0 9.16 0 a4.58 4.58 0 1 0 -9.16 0zM505.8 451.39L503.97 453.22L509.6 458.84L511.43 457.01zM505.93 457.93 a4.58 4.58 0 1 0 9.16 0 a4.58 4.58 0 1 0 -9.16 0zM490.05 462.52L487.66 463.51L491.64 473.13L494.03 472.14zM488.26 472.64 a4.58 4.58 0 1 0 9.16 0 a4.58 4.58 0 1 0 -9.16 0zM471.24 466.78L468.65 466.78L468.65 474.51L471.24 474.51zM465.36 474.51 a4.58 4.58 0 1 0 9.16 0 a4.58 4.58 0 1 0 -9.16 0zM452.22 463.51L449.83 462.52L441.01 483.83L443.4 484.82zM437.62 484.32 a4.58 4.58 0 1 0 9.16 0 a4.58 4.58 0 1 0 -9.16 0zM435.91 453.22L434.08 451.39L421.68 463.78L423.51 465.61zM418.02 464.7 a4.58 4.58 0 1 0 9.16 0 a4.58 4.58 0 1 0 -9.16 0zM424.78 437.47L423.79 435.07L416.28 438.18L417.27 440.57zM412.2 439.38 a4.58 4.58 0 1 0 9.16 0 a4.58 4.58 0 1 0 -9.16 0zM420.52 418.65L420.52 416.06L406.23 416.06L406.23 418.65zM401.65 417.36 a4.58 4.58 0 1 0 9.16 0 a4.58 4.58 0 1 0 -9.16 0zM423.79 399.64L424.78 397.25L404.09 388.68L403.1 391.07zM399.01 389.87 a4.58 4.58 0 1 0 9.16 0 a4.58 4.58 0 1 0 -9.16 0zM434.08 383.32L435.91 381.49L429.52 375.11L427.69 376.94zM424.03 376.02 a4.58 4.58 0 1 0 9.16 0 a4.58 4.58 0 1 0 -9.16 0zM449.83 372.19L452.22 371.2L444.52 352.59L442.13 353.58zM438.74 353.09 a4.58 4.58 0 1 0 9.16 0 a4.58 4.58 0 1 0 -9.16 0zM468.65 367.93L471.24 367.93L471.24 351.59L468.65 351.59zM465.36 351.59 a4.58 4.58 0 1 0 9.16 0 a4.58 4.58 0 1 0 -9.16 0zM487.66 371.2L490.05 372.19L494.59 361.22L492.2 360.23zM488.82 360.73 a4.58 4.58 0 1 0 9.16 0 a4.58 4.58 0 1 0 -9.16 0zM503.97 381.49L505.8 383.32L520.13 369L518.3 367.17zM514.63 368.08 a4.58 4.58 0 1 0 9.16 0 a4.58 4.58 0 1 0 -9.16 0zM515.11 397.25L516.1 399.64L526.97 395.13L525.98 392.74zM521.9 393.94 a4.58 4.58 0 1 0 9.16 0 a4.58 4.58 0 1 0 -9.16 0zM420.5 417.36 a49.44 49.44 0 1 0 98.88 0 a49.44 49.44 0 1 0 -98.88 0z" fill="rgba(146, 185, 41, 1)"></path><path d="M517.65 430.34 A48.44 48.44 0 0 1 434.92 452.25M434.92 452.25 A98.88 98.88 0 0 0 517.65 430.34" fill="#759421" fill-rule="nonzero"></path><path d="M477.56 450.02 a9.89 9.89 0 1 0 19.78 0 a9.89 9.89 0 1 0 -19.78 0zM451.72 412.14 a9.89 9.89 0 1 0 19.78 0 a9.89 9.89 0 1 0 -19.78 0zM434.8 433.98 a8.4 8.4 0 1 0 16.8 0 a8.4 8.4 0 1 0 -16.8 0zM431.87 414.06 a2.97 2.97 0 1 0 5.94 0 a2.97 2.97 0 1 0 -5.94 0zM499.08 407.4 a9.39 9.39 0 1 0 18.78 0 a9.39 9.39 0 1 0 -18.78 0zM432.4 391.61 a8.9 8.9 0 1 0 17.8 0 a8.9 8.9 0 1 0 -17.8 0zM447.57 454.26 a2.97 2.97 0 1 0 5.94 0 a2.97 2.97 0 1 0 -5.94 0zM457.5 379.86 a4.94 4.94 0 1 0 9.88 0 a4.94 4.94 0 1 0 -9.88 0zM462.43 460.59 a3.46 3.46 0 1 0 6.92 0 a3.46 3.46 0 1 0 -6.92 0zM477.1 398.08 a3.46 3.46 0 1 0 6.92 0 a3.46 3.46 0 1 0 -6.92 0z" fill="#759421" fill-rule="nonzero"></path><path d="M430.27 130.54L430.27 133.12L440.53 133.12L440.53 130.54zM435.95 131.83 a4.58 4.58 0 1 0 9.16 0 a4.58 4.58 0 1 0 -9.16 0zM427 149.55L426.01 151.94L438.09 156.94L439.08 154.55zM434 155.74 a4.58 4.58 0 1 0 9.16 0 a4.58 4.58 0 1 0 -9.16 0zM416.71 165.86L414.88 167.69L426.11 178.92L427.94 177.09zM422.44 178.01 a4.58 4.58 0 1 0 9.16 0 a4.58 4.58 0 1 0 -9.16 0zM400.95 177L398.56 177.99L407.67 199.97L410.06 198.97zM404.28 199.47 a4.58 4.58 0 1 0 9.16 0 a4.58 4.58 0 1 0 -9.16 0zM382.14 181.25L379.55 181.25L379.55 189.76L382.14 189.76zM376.27 189.76 a4.58 4.58 0 1 0 9.16 0 a4.58 4.58 0 1 0 -9.16 0zM363.13 177.99L360.74 177L355.96 188.53L358.35 189.53zM352.57 189.03 a4.58 4.58 0 1 0 9.16 0 a4.58 4.58 0 1 0 -9.16 0zM346.81 167.69L344.98 165.86L330.02 180.82L331.85 182.65zM326.36 181.74 a4.58 4.58 0 1 0 9.16 0 a4.58 4.58 0 1 0 -9.16 0zM335.68 151.94L334.69 149.55L319.31 155.92L320.3 158.31zM315.22 157.11 a4.58 4.58 0 1 0 9.16 0 a4.58 4.58 0 1 0 -9.16 0zM331.42 133.12L331.42 130.54L322.44 130.54L322.44 133.12zM317.86 131.83 a4.58 4.58 0 1 0 9.16 0 a4.58 4.58 0 1 0 -9.16 0zM334.69 114.11L335.68 111.72L315.03 103.17L314.04 105.56zM309.96 104.36 a4.58 4.58 0 1 0 9.16 0 a4.58 4.58 0 1 0 -9.16 0zM344.98 97.8L346.81 95.97L332.31 81.46L330.48 83.29zM326.82 82.38 a4.58 4.58 0 1 0 9.16 0 a4.58 4.58 0 1 0 -9.16 0zM360.74 86.66L363.13 85.67L358.26 73.91L355.87 74.9zM352.48 74.41 a4.58 4.58 0 1 0 9.16 0 a4.58 4.58 0 1 0 -9.16 0zM379.55 82.41L382.14 82.41L382.14 67.57L379.55 67.57zM376.27 67.57 a4.58 4.58 0 1 0 9.16 0 a4.58 4.58 0 1 0 -9.16 0zM398.56 85.67L400.95 86.66L405.05 76.77L402.66 75.78zM399.28 76.27 a4.58 4.58 0 1 0 9.16 0 a4.58 4.58 0 1 0 -9.16 0zM414.88 95.97L416.71 97.8L433.87 80.64L432.04 78.81zM428.37 79.72 a4.58 4.58 0 1 0 9.16 0 a4.58 4.58 0 1 0 -9.16 0zM426.01 111.72L427 114.11L438.21 109.47L437.22 107.08zM433.13 108.27 a4.58 4.58 0 1 0 9.16 0 a4.58 4.58 0 1 0 -9.16 0zM331.41 131.83 a49.44 49.44 0 1 0 98.88 0 a49.44 49.44 0 1 0 -98.88 0z" fill="rgba(146, 185, 41, 1)"></path><path d="M385.27 181.07 A48.44 48.44 0 0 1 335.95 111.13M335.95 111.13 A98.88 98.88 0 0 0 385.27 181.07" fill="#759421" fill-rule="nonzero"></path><path d="M351.12 149.66 a9.89 9.89 0 1 0 19.78 0 a9.89 9.89 0 1 0 -19.78 0zM348.58 114.13 a9.89 9.89 0 1 0 19.78 0 a9.89 9.89 0 1 0 -19.78 0zM380.74 147.51 a7.91 7.91 0 1 0 15.82 0 a7.91 7.91 0 1 0 -15.82 0zM422.65 114.43 a1.98 1.98 0 1 0 3.96 0 a1.98 1.98 0 1 0 -3.96 0zM404.28 123.46 a5.44 5.44 0 1 0 10.88 0 a5.44 5.44 0 1 0 -10.88 0zM405.14 161.28 a6.43 6.43 0 1 0 12.86 0 a6.43 6.43 0 1 0 -12.86 0zM377.36 126.71 a3.96 3.96 0 1 0 7.92 0 a3.96 3.96 0 1 0 -7.92 0zM409.02 102.5 a4.45 4.45 0 1 0 8.9 0 a4.45 4.45 0 1 0 -8.9 0zM377.74 166.42 a2.47 2.47 0 1 0 4.94 0 a2.47 2.47 0 1 0 -4.94 0zM383.5 87.26 a3.96 3.96 0 1 0 7.92 0 a3.96 3.96 0 1 0 -7.92 0z" fill="#759421" fill-rule="nonzero"></path></g><defs><mask id="SvgjsMask1032"><rect width="2000" height="500" fill="#ffffff"></rect></mask></defs></svg>